<svg xmlns="http://www.w3.org/2000/svg" viewBox="0 0 64 64">
  <defs>
    <linearGradient id="bg" x1="0" y1="0" x2="1" y2="1">
      <stop offset="0%" stop-color="#0f2731" />
      <stop offset="100%" stop-color="#193f48" />
    </linearGradient>
    <linearGradient id="ring" x1="0" y1="0" x2="1" y2="1">
      <stop offset="0%" stop-color="#9de7d7" />
      <stop offset="100%" stop-color="#f4d37a" />
    </linearGradient>
    <linearGradient id="core" x1="0" y1="0" x2="1" y2="1">
      <stop offset="0%" stop-color="#f6f2df" />
      <stop offset="100%" stop-color="#d8c487" />
    </linearGradient>
  </defs>
  <rect width="64" height="64" rx="14" fill="url(#bg)" />
  <circle cx="32" cy="32" r="19" fill="none" stroke="url(#ring)" stroke-width="4.5" />
  <path d="M32 12c3 5 5 10 5 15s-2 10-5 15c-3-5-5-10-5-15s2-10 5-15Z" fill="url(#core)" />
  <path d="M17 32c5-3 10-5 15-5s10 2 15 5c-5 3-10 5-15 5s-10-2-15-5Z" fill="url(#core)" opacity="0.95" />
  <circle cx="32" cy="32" r="6.5" fill="#fff8dc" />
  <circle cx="32" cy="32" r="2.5" fill="#0f2731" opacity="0.75" />
</svg>
